# xmcd
#
# Track frame offsets: 
#        150
#        15565
#        33533
#        45017
#        74403
#        88637
#        98023
#        123350
#        137146
#        156126
#        176025
#        191264
#        209976
#        222544
#        239669
#
# Disc length: 3442 seconds
#
# Revision: 0
# Processed by: cddbd v1.5.1PL0 Copyright (c) Steve Scherf et al.
# Submitted via: ExactAudioCopy v0.95b2
#
DISCID=d70d700f
DTITLE=Various Artist - Deep South Blues
DYEAR=1999
DGENRE=Blues
TTITLE0=Junior Kimbrough And The Soul Blues Boys/Tomorrow Night
TTITLE1=Junior Kimbrough And The Soul Blues Boys/I Feel Good, Little G
TTITLE1=irl
TTITLE2=Hammie Nixon/Bottle Up And Go
TTITLE3=R.L. Burnside and The Sound Machine/Bad Luck City
TTITLE4=Waynell Jones/The Chicken Song
TTITLE5=Waynell Jones/Jaybird Boogie
TTITLE6=Jessie Mae Hemphill/Brokenhearted Blues
TTITLE7=Lillie Hill/Cotton Fields - Boss Man
TTITLE8=Raymond Hill/Going Down
TTITLE9=Ranie Burnette/Coal Black Mattie
TTITLE10=Ranie Burnette/Hungry Spell
TTITLE11=Hezekiah And The House Rockers/Midnight Blues
TTITLE12=Hezekiah And The House Rockers/Roll Me, Baby
TTITLE13=Uncle Ben and His Nephews/Mama, Look At Sis
TTITLE14=Uncle Ben and His Nephews/Mean Woman Blues (Laura Ann)
EXTD=
EXTT0=
EXTT1=
EXTT2=
EXTT3=
EXTT4=
EXTT5=
EXTT6=
EXTT7=
EXTT8=
EXTT9=
EXTT10=
EXTT11=
EXTT12=
EXTT13=
EXTT14=
PLAYORDER=
